<svg xmlns="http://www.w3.org/2000/svg" width="120" height="120" fill="none" viewBox="0 0 40 40"><g clip-path="url(#a)"><path fill="url(#b)" d="M25.805.888A19.9 19.9 0 0 0 20.12.046c4.82.926 9.085 4.15 10.922 8.83.771 1.964 1.133 4.012.713 6.112-.278 1.388-.017 2.585.823 3.713.504.678.952 1.407 1.368 2.145.651 1.158.433 1.795-.736 2.343-.078.035-.162.053-.239.086-1.525.659-1.578.833-.643 2.486l-1.395.805c.157.32.438.64.427.95-.011.276-.318.566-.542.804-.475.513-.574 1.083-.472 1.762.342 2.305-.263 3.018-2.6 3.076-1.358.033-2.715.011-4.075.015-1.531.007-2.053.325-2.548 1.773-.57 1.666-.738 3.386-.735 5.12a19.9 19.9 0 0 0 5.418-.837c8.248-2.473 14.259-10.12 14.259-19.174 0-9.045-6.011-16.694-14.259-19.167"/><path fill="url(#c)" d="M18.632 22.305c-.495 0-.933.256-1.185.64h-2.85l-1.722-1.648H5.182c-.628-.952-1.156-1.951-1.54-3.019H24.86a1.382 1.382 0 1 0 0-1.551H3.201a10 10 0 0 1-.075-.391 14 14 0 0 1-.175-1.485h6.661a1.382 1.382 0 1 0 0-1.551h-6.68c.057-1.413.324-2.783.777-4.076h17.682l1.722-1.648h2.85a1.416 1.416 0 0 0 2.599-.773 1.416 1.416 0 0 0-2.594-.781h-3.381l-1.793 1.554H4.411l-.016.028a19.92 19.92 0 0 0-4.36 12.464c0 6.845 3.439 12.884 8.679 16.493.563-1.885.963-3.803 1.127-5.785q.029-.356.028-.701h4.372a1.382 1.382 0 1 0 0-1.551H9.719c-.234-1.152-.74-2.213-1.518-3.205a172 172 0 0 1-1.819-2.364h5.898l1.793 1.553h3.38a1.414 1.414 0 0 0 2.595-.78 1.42 1.42 0 0 0-1.416-1.423"/><path fill="url(#d)" d="M18.495 36.062a1.381 1.381 0 1 0 0-2.763 1.381 1.381 0 0 0 0 2.763"/><path fill="url(#e)" d="M17.478 5.384a1.382 1.382 0 1 0 0-2.764 1.382 1.382 0 0 0 0 2.764"/></g><defs><linearGradient id="b" x1="36.111" x2="31.244" y1="32.911" y2="27.42" gradientUnits="userSpaceOnUse"><stop stop-color="#4698f3"/><stop offset="1" stop-color="#7dc1ff"/></linearGradient><linearGradient id="c" x1="1.962" x2="30.042" y1="24.188" y2="11.209" gradientUnits="userSpaceOnUse"><stop stop-color="#4698f3"/><stop offset="1" stop-color="#7dc1ff"/></linearGradient><linearGradient id="d" x1="8.869" x2="36.948" y1="39.129" y2="26.15" gradientUnits="userSpaceOnUse"><stop stop-color="#4698f3"/><stop offset="1" stop-color="#7dc1ff"/></linearGradient><linearGradient id="e" x1="-2.994" x2="25.085" y1="13.465" y2=".486" gradientUnits="userSpaceOnUse"><stop stop-color="#4698f3"/><stop offset="1" stop-color="#7dc1ff"/></linearGradient><clipPath id="a"><path fill="#fff" d="M0 0h40v40H0z"/></clipPath></defs></svg>